# xmcd
#
# Track frame offsets:
#	150
#	18419
#	37790
#	61623
#	81624
#	93957
#	109119
#	115808
#	136457
#	156687
#	173670
#	178718
#	193024
#	210035
#	226376
#	243952
#
# Disc length: 3486 seconds
# Revision: 2
# Processed by: cddbd v1.5.2PL0 Copyright (c) Steve Scherf et al.
# Submitted via: dBpowerAMP V12.0
#
DISCID=ca0d9c10
DTITLE=SOFT - Partout étranger
DYEAR=2007
DGENRE=Creole blues
TTITLE0=Doudou O (On kat postal)
TTITLE1=Lanmou o piyaj
TTITLE2=Enmé mwen toujou
TTITLE3=Tantant [feat. MAXENCE DESHAYES]
TTITLE4=Partout étranger
TTITLE5=Mi on Ti Bigin
TTITLE6=Doudou O (Pawol a Madanm) [feat. FIRMINE RICHARD]
TTITLE7=Wouvè la pot [feat. MAXENCE DESHAYES]
TTITLE8=Sa nou yé
TTITLE9=Ka-w ka di ka-w ka fè [feat. JOËL JERNIDIER]
TTITLE10=Activité
TTITLE11=Léritaj
TTITLE12=Péyi an mwen
TTITLE13=Amandine Street
TTITLE14=Gouté Gwadloup
TTITLE15=Frenchi
EXTD=
EXTT0=
EXTT1=
EXTT2=
EXTT3=
EXTT4=
EXTT5=
EXTT6=
EXTT7=
EXTT8=
EXTT9=
EXTT10=
EXTT11=
EXTT12=
EXTT13=
EXTT14=
EXTT15=
PLAYORDER=
